<mxfile host="65bd71144e">
    <diagram id="PToDFmMBbnbl_CZjo7a7" name="Page-1">
        <mxGraphModel dx="1378" dy="725" grid="1" gridSize="10" guides="1" tooltips="1" connect="1" arrows="1" fold="1" page="1" pageScale="1" pageWidth="850" pageHeight="1100" math="0" shadow="0">
            <root>
                <mxCell id="0"/>
                <mxCell id="1" parent="0"/>
                <mxCell id="3" value="" style="endArrow=classic;html=1;" parent="1" edge="1">
                    <mxGeometry width="50" height="50" relative="1" as="geometry">
                        <mxPoint x="704" y="81" as="sourcePoint"/>
                        <mxPoint x="704" y="111" as="targetPoint"/>
                    </mxGeometry>
                </mxCell>
                <mxCell id="8" value="Create account" style="rounded=0;whiteSpace=wrap;html=1;" parent="1" vertex="1">
                    <mxGeometry x="461" y="270" width="120" height="60" as="geometry"/>
                </mxCell>
                <mxCell id="9" value="" style="endArrow=classic;html=1;" parent="1" edge="1">
                    <mxGeometry width="50" height="50" relative="1" as="geometry">
                        <mxPoint x="580" y="300" as="sourcePoint"/>
                        <mxPoint x="640" y="300" as="targetPoint"/>
                    </mxGeometry>
                </mxCell>
                <mxCell id="10" value="Display registration page" style="shape=parallelogram;perimeter=parallelogramPerimeter;whiteSpace=wrap;html=1;fixedSize=1;" parent="1" vertex="1">
                    <mxGeometry x="630" y="275" width="130" height="50" as="geometry"/>
                </mxCell>
                <mxCell id="12" value="" style="edgeStyle=segmentEdgeStyle;endArrow=classic;html=1;curved=0;rounded=0;endSize=8;startSize=8;" parent="1" edge="1">
                    <mxGeometry width="50" height="50" relative="1" as="geometry">
                        <mxPoint x="680" y="325" as="sourcePoint"/>
                        <mxPoint x="580" y="391" as="targetPoint"/>
                        <Array as="points">
                            <mxPoint x="680" y="391"/>
                        </Array>
                    </mxGeometry>
                </mxCell>
                <mxCell id="13" value="Press sign up" style="rounded=0;whiteSpace=wrap;html=1;" parent="1" vertex="1">
                    <mxGeometry x="461" y="350" width="120" height="60" as="geometry"/>
                </mxCell>
                <mxCell id="14" value="" style="edgeStyle=elbowEdgeStyle;elbow=vertical;endArrow=classic;html=1;curved=0;rounded=0;endSize=8;startSize=8;" parent="1" edge="1">
                    <mxGeometry width="50" height="50" relative="1" as="geometry">
                        <mxPoint x="520" y="410" as="sourcePoint"/>
                        <mxPoint x="690" y="470" as="targetPoint"/>
                    </mxGeometry>
                </mxCell>
                <mxCell id="15" value="Form valid?" style="rhombus;whiteSpace=wrap;html=1;" parent="1" vertex="1">
                    <mxGeometry x="650" y="470" width="80" height="80" as="geometry"/>
                </mxCell>
                <mxCell id="16" value="" style="endArrow=classic;html=1;" parent="1" edge="1">
                    <mxGeometry width="50" height="50" relative="1" as="geometry">
                        <mxPoint x="730" y="510" as="sourcePoint"/>
                        <mxPoint x="760" y="510" as="targetPoint"/>
                    </mxGeometry>
                </mxCell>
                <mxCell id="17" value="NO" style="text;html=1;align=center;verticalAlign=middle;resizable=0;points=[];autosize=1;strokeColor=none;fillColor=none;" parent="1" vertex="1">
                    <mxGeometry x="723" y="487" width="40" height="30" as="geometry"/>
                </mxCell>
                <mxCell id="18" value="Display &quot;Error&quot;" style="shape=parallelogram;perimeter=parallelogramPerimeter;whiteSpace=wrap;html=1;fixedSize=1;" parent="1" vertex="1">
                    <mxGeometry x="750" y="487" width="100" height="43" as="geometry"/>
                </mxCell>
                <mxCell id="19" value="" style="endArrow=classic;html=1;" parent="1" edge="1">
                    <mxGeometry width="50" height="50" relative="1" as="geometry">
                        <mxPoint x="690" y="550" as="sourcePoint"/>
                        <mxPoint x="690" y="570" as="targetPoint"/>
                    </mxGeometry>
                </mxCell>
                <mxCell id="20" value="YES" style="text;html=1;align=center;verticalAlign=middle;resizable=0;points=[];autosize=1;strokeColor=none;fillColor=none;" parent="1" vertex="1">
                    <mxGeometry x="644" y="545" width="50" height="30" as="geometry"/>
                </mxCell>
                <mxCell id="21" value="User account add to database" style="rounded=0;whiteSpace=wrap;html=1;" parent="1" vertex="1">
                    <mxGeometry x="630" y="570" width="120" height="60" as="geometry"/>
                </mxCell>
                <mxCell id="22" value="Display homepage" style="shape=parallelogram;perimeter=parallelogramPerimeter;whiteSpace=wrap;html=1;fixedSize=1;" parent="1" vertex="1">
                    <mxGeometry x="620" y="650" width="130" height="50" as="geometry"/>
                </mxCell>
                <mxCell id="23" value="" style="endArrow=classic;html=1;" parent="1" edge="1">
                    <mxGeometry width="50" height="50" relative="1" as="geometry">
                        <mxPoint x="688" y="630" as="sourcePoint"/>
                        <mxPoint x="688" y="650" as="targetPoint"/>
                    </mxGeometry>
                </mxCell>
                <mxCell id="24" value="" style="endArrow=classic;html=1;" parent="1" edge="1">
                    <mxGeometry width="50" height="50" relative="1" as="geometry">
                        <mxPoint x="683" y="700" as="sourcePoint"/>
                        <mxPoint x="683" y="720" as="targetPoint"/>
                    </mxGeometry>
                </mxCell>
                <mxCell id="25" value="" style="shape=sumEllipse;perimeter=ellipsePerimeter;whiteSpace=wrap;html=1;backgroundOutline=1;" parent="1" vertex="1">
                    <mxGeometry x="668" y="720" width="30" height="30" as="geometry"/>
                </mxCell>
                <mxCell id="26" value="Administrator,Student,Fellow,Staff" style="swimlane;whiteSpace=wrap;html=1;" parent="1" vertex="1">
                    <mxGeometry x="360" y="20" width="255" height="740" as="geometry"/>
                </mxCell>
                <mxCell id="40" value="User fill in ID and paasword" style="rounded=0;whiteSpace=wrap;html=1;" parent="26" vertex="1">
                    <mxGeometry x="35" y="490" width="120" height="60" as="geometry"/>
                </mxCell>
                <mxCell id="27" value="System" style="swimlane;whiteSpace=wrap;html=1;" parent="1" vertex="1">
                    <mxGeometry x="615" y="20" width="245" height="740" as="geometry"/>
                </mxCell>
                <mxCell id="4" value="Display login page" style="shape=parallelogram;perimeter=parallelogramPerimeter;whiteSpace=wrap;html=1;fixedSize=1;" parent="27" vertex="1">
                    <mxGeometry x="28" y="160" width="120" height="60" as="geometry"/>
                </mxCell>
                <mxCell id="29" value="Have an account?" style="rhombus;whiteSpace=wrap;html=1;" parent="27" vertex="1">
                    <mxGeometry x="30" y="90" width="120" height="50" as="geometry"/>
                </mxCell>
                <mxCell id="2" value="" style="ellipse;" parent="27" vertex="1">
                    <mxGeometry x="74" y="29" width="30" height="30" as="geometry"/>
                </mxCell>
                <mxCell id="31" value="" style="endArrow=classic;html=1;" parent="27" edge="1">
                    <mxGeometry width="50" height="50" relative="1" as="geometry">
                        <mxPoint x="90" y="140" as="sourcePoint"/>
                        <mxPoint x="90" y="160" as="targetPoint"/>
                    </mxGeometry>
                </mxCell>
                <mxCell id="41" value="" style="edgeStyle=elbowEdgeStyle;elbow=horizontal;endArrow=classic;html=1;curved=0;rounded=0;endSize=8;startSize=8;" parent="27" source="40" edge="1">
                    <mxGeometry width="50" height="50" relative="1" as="geometry">
                        <mxPoint x="-165" y="570" as="sourcePoint"/>
                        <mxPoint x="75" y="618" as="targetPoint"/>
                        <Array as="points">
                            <mxPoint x="-165" y="610"/>
                        </Array>
                    </mxGeometry>
                </mxCell>
                <mxCell id="7" value="NO" style="edgeStyle=segmentEdgeStyle;endArrow=classic;html=1;curved=0;rounded=0;endSize=8;startSize=8;exitX=0;exitY=0.5;exitDx=0;exitDy=0;entryX=0.558;entryY=0.013;entryDx=0;entryDy=0;entryPerimeter=0;" parent="1" source="29" target="8" edge="1">
                    <mxGeometry width="50" height="50" relative="1" as="geometry">
                        <mxPoint x="588.9961538461538" y="135.00153846153844" as="sourcePoint"/>
                        <mxPoint x="455" y="275" as="targetPoint"/>
                        <Array as="points">
                            <mxPoint x="528" y="135"/>
                        </Array>
                    </mxGeometry>
                </mxCell>
                <mxCell id="35" value="" style="edgeStyle=elbowEdgeStyle;elbow=horizontal;endArrow=classic;html=1;curved=0;rounded=0;endSize=8;startSize=8;exitX=0;exitY=0.5;exitDx=0;exitDy=0;entryX=0;entryY=0.5;entryDx=0;entryDy=0;" parent="1" source="4" target="40" edge="1">
                    <mxGeometry width="50" height="50" relative="1" as="geometry">
                        <mxPoint x="600" y="210" as="sourcePoint"/>
                        <mxPoint x="385" y="520" as="targetPoint"/>
                        <Array as="points">
                            <mxPoint x="370" y="490"/>
                            <mxPoint x="385" y="340"/>
                            <mxPoint x="390" y="170"/>
                        </Array>
                    </mxGeometry>
                </mxCell>
                <mxCell id="42" value="Yes" style="text;html=1;align=center;verticalAlign=middle;resizable=0;points=[];autosize=1;strokeColor=none;fillColor=none;" vertex="1" parent="1">
                    <mxGeometry x="670" y="155" width="40" height="30" as="geometry"/>
                </mxCell>
            </root>
        </mxGraphModel>
    </diagram>
</mxfile>